<?xml version="1.0" encoding="UTF-8" standalone="no"?>
<!DOCTYPE svg PUBLIC "-//W3C//DTD SVG 1.1//EN"
 "http://www.w3.org/Graphics/SVG/1.1/DTD/svg11.dtd">
<!-- Generated by graphviz version 2.40.1 (20161225.0304)
 -->
<!-- Title: snakemake_dag Pages: 1 -->
<svg width="5569pt" height="522pt"
 viewBox="0.00 0.00 5568.50 522.00" xmlns="http://www.w3.org/2000/svg" xmlns:xlink="http://www.w3.org/1999/xlink">
<g id="graph0" class="graph" transform="scale(1 1) rotate(0) translate(4 518)">
<title>snakemake_dag</title>
<polygon fill="#ffffff" stroke="transparent" points="-4,4 -4,-518 5564.5,-518 5564.5,4 -4,4"/>
<!-- 0 -->
<g id="node1" class="node">
<title>0</title>
<path fill="none" stroke="#56d8a9" stroke-width="2" d="M2778,-63C2778,-63 2726,-63 2726,-63 2720,-63 2714,-57 2714,-51 2714,-51 2714,-12 2714,-12 2714,-6 2720,0 2726,0 2726,0 2778,0 2778,0 2784,0 2790,-6 2790,-12 2790,-12 2790,-51 2790,-51 2790,-57 2784,-63 2778,-63"/>
<text text-anchor="middle" x="2752" y="-19" font-family="sans" font-size="50.00" fill="#000000">all</text>
</g>
<!-- 1 -->
<g id="node2" class="node">
<title>1</title>
<path fill="none" stroke="#56a9d8" stroke-width="2" d="M1368,-316C1368,-316 12,-316 12,-316 6,-316 0,-310 0,-304 0,-304 0,-210 0,-210 0,-204 6,-198 12,-198 12,-198 1368,-198 1368,-198 1374,-198 1380,-204 1380,-210 1380,-210 1380,-304 1380,-304 1380,-310 1374,-316 1368,-316"/>
<text text-anchor="middle" x="690" y="-272" font-family="sans" font-size="50.00" fill="#000000">salmon_quant</text>
<text text-anchor="middle" x="690" y="-217" font-family="sans" font-size="50.00" fill="#000000">flowcell_lane_info: HFYYTDSXX_18804124_S121_L002</text>
</g>
<!-- 1&#45;&gt;0 -->
<g id="edge1" class="edge">
<title>1&#45;&gt;0</title>
<path fill="none" stroke="#c0c0c0" stroke-width="2" d="M1229.7458,-197.9735C1756.9804,-140.3152 2507.8997,-58.1948 2703.7871,-36.7726"/>
<polygon fill="#c0c0c0" stroke="#c0c0c0" stroke-width="2" points="2704.2042,-40.2479 2713.7644,-35.6814 2703.4431,-33.2894 2704.2042,-40.2479"/>
</g>
<!-- 3 -->
<g id="node4" class="node">
<title>3</title>
<path fill="none" stroke="#d85656" stroke-width="2" d="M2842.5,-162C2842.5,-162 2661.5,-162 2661.5,-162 2655.5,-162 2649.5,-156 2649.5,-150 2649.5,-150 2649.5,-111 2649.5,-111 2649.5,-105 2655.5,-99 2661.5,-99 2661.5,-99 2842.5,-99 2842.5,-99 2848.5,-99 2854.5,-105 2854.5,-111 2854.5,-111 2854.5,-150 2854.5,-150 2854.5,-156 2848.5,-162 2842.5,-162"/>
<text text-anchor="middle" x="2752" y="-118" font-family="sans" font-size="50.00" fill="#000000">multiqc</text>
</g>
<!-- 1&#45;&gt;3 -->
<g id="edge8" class="edge">
<title>1&#45;&gt;3</title>
<path fill="none" stroke="#c0c0c0" stroke-width="2" d="M1380.3227,-198.584C1383.2215,-198.3879 1386.114,-198.1932 1389,-198 1852.5308,-166.9692 2405.6308,-143.8733 2639.1388,-134.7622"/>
<polygon fill="#c0c0c0" stroke="#c0c0c0" stroke-width="2" points="2639.4834,-138.2516 2649.3397,-134.3652 2639.2111,-131.2569 2639.4834,-138.2516"/>
</g>
<!-- 2 -->
<g id="node3" class="node">
<title>2</title>
<path fill="none" stroke="#56a9d8" stroke-width="2" d="M5548.5,-316C5548.5,-316 4199.5,-316 4199.5,-316 4193.5,-316 4187.5,-310 4187.5,-304 4187.5,-304 4187.5,-210 4187.5,-210 4187.5,-204 4193.5,-198 4199.5,-198 4199.5,-198 5548.5,-198 5548.5,-198 5554.5,-198 5560.5,-204 5560.5,-210 5560.5,-210 5560.5,-304 5560.5,-304 5560.5,-310 5554.5,-316 5548.5,-316"/>
<text text-anchor="middle" x="4874" y="-272" font-family="sans" font-size="50.00" fill="#000000">salmon_quant</text>
<text text-anchor="middle" x="4874" y="-217" font-family="sans" font-size="50.00" fill="#000000">flowcell_lane_info: HM7FMBBXX_16496360_S56_L005</text>
</g>
<!-- 2&#45;&gt;0 -->
<g id="edge2" class="edge">
<title>2&#45;&gt;0</title>
<path fill="none" stroke="#c0c0c0" stroke-width="2" d="M4318.5487,-197.9735C3774.7663,-140.187 2999.7656,-57.8295 2800.2796,-36.6306"/>
<polygon fill="#c0c0c0" stroke="#c0c0c0" stroke-width="2" points="2800.4429,-33.1283 2790.129,-35.5519 2799.7031,-40.0891 2800.4429,-33.1283"/>
</g>
<!-- 2&#45;&gt;3 -->
<g id="edge9" class="edge">
<title>2&#45;&gt;3</title>
<path fill="none" stroke="#c0c0c0" stroke-width="2" d="M4187.1734,-198.5431C4184.4433,-198.3607 4181.7187,-198.1796 4179,-198 3690.133,-165.6987 3106.0589,-143.0563 2864.7861,-134.3992"/>
<polygon fill="#c0c0c0" stroke="#c0c0c0" stroke-width="2" points="2864.7218,-130.8948 2854.603,-134.0349 2864.4714,-137.8903 2864.7218,-130.8948"/>
</g>
<!-- 3&#45;&gt;0 -->
<g id="edge3" class="edge">
<title>3&#45;&gt;0</title>
<path fill="none" stroke="#c0c0c0" stroke-width="2" d="M2752,-98.9036C2752,-90.777 2752,-81.9064 2752,-73.3485"/>
<polygon fill="#c0c0c0" stroke="#c0c0c0" stroke-width="2" points="2755.5001,-73.1358 2752,-63.1358 2748.5001,-73.1358 2755.5001,-73.1358"/>
</g>
<!-- 4 -->
<g id="node5" class="node">
<title>4</title>
<path fill="none" stroke="#59d856" stroke-width="2" d="M2951,-415C2951,-415 2613,-415 2613,-415 2607,-415 2601,-409 2601,-403 2601,-403 2601,-364 2601,-364 2601,-358 2607,-352 2613,-352 2613,-352 2951,-352 2951,-352 2957,-352 2963,-358 2963,-364 2963,-364 2963,-403 2963,-403 2963,-409 2957,-415 2951,-415"/>
<text text-anchor="middle" x="2782" y="-371" font-family="sans" font-size="50.00" fill="#000000">salmon_index</text>
</g>
<!-- 4&#45;&gt;1 -->
<g id="edge4" class="edge">
<title>4&#45;&gt;1</title>
<path fill="none" stroke="#c0c0c0" stroke-width="2" d="M2600.7297,-376.7886C2336.8252,-366.5511 1831.1393,-345.176 1390.3944,-316.0873"/>
<polygon fill="#c0c0c0" stroke="#c0c0c0" stroke-width="2" points="1390.5318,-312.5889 1380.3224,-315.4205 1390.0693,-319.5736 1390.5318,-312.5889"/>
</g>
<!-- 4&#45;&gt;2 -->
<g id="edge5" class="edge">
<title>4&#45;&gt;2</title>
<path fill="none" stroke="#c0c0c0" stroke-width="2" d="M2963.2371,-376.8519C3227.7458,-366.6744 3735.29,-345.3529 4177.0774,-316.123"/>
<polygon fill="#c0c0c0" stroke="#c0c0c0" stroke-width="2" points="4177.4269,-319.6076 4187.1732,-315.4529 4176.9633,-312.623 4177.4269,-319.6076"/>
</g>
<!-- 5 -->
<g id="node6" class="node">
<title>5</title>
<path fill="none" stroke="#d8ac56" stroke-width="2" d="M2766,-316C2766,-316 1410,-316 1410,-316 1404,-316 1398,-310 1398,-304 1398,-304 1398,-210 1398,-210 1398,-204 1404,-198 1410,-198 1410,-198 2766,-198 2766,-198 2772,-198 2778,-204 2778,-210 2778,-210 2778,-304 2778,-304 2778,-310 2772,-316 2766,-316"/>
<text text-anchor="middle" x="2088" y="-272" font-family="sans" font-size="50.00" fill="#000000">fastqc</text>
<text text-anchor="middle" x="2088" y="-217" font-family="sans" font-size="50.00" fill="#000000">flowcell_lane_info: HFYYTDSXX_18804124_S121_L002</text>
</g>
<!-- 5&#45;&gt;3 -->
<g id="edge6" class="edge">
<title>5&#45;&gt;3</title>
<path fill="none" stroke="#c0c0c0" stroke-width="2" d="M2398.1293,-197.9166C2484.2426,-181.511 2572.3266,-164.7299 2639.0729,-152.014"/>
<polygon fill="#c0c0c0" stroke="#c0c0c0" stroke-width="2" points="2640.012,-155.3981 2649.1803,-150.0884 2638.7019,-148.5218 2640.012,-155.3981"/>
</g>
<!-- 6 -->
<g id="node7" class="node">
<title>6</title>
<path fill="none" stroke="#d8ac56" stroke-width="2" d="M4157.5,-316C4157.5,-316 2808.5,-316 2808.5,-316 2802.5,-316 2796.5,-310 2796.5,-304 2796.5,-304 2796.5,-210 2796.5,-210 2796.5,-204 2802.5,-198 2808.5,-198 2808.5,-198 4157.5,-198 4157.5,-198 4163.5,-198 4169.5,-204 4169.5,-210 4169.5,-210 4169.5,-304 4169.5,-304 4169.5,-310 4163.5,-316 4157.5,-316"/>
<text text-anchor="middle" x="3483" y="-272" font-family="sans" font-size="50.00" fill="#000000">fastqc</text>
<text text-anchor="middle" x="3483" y="-217" font-family="sans" font-size="50.00" fill="#000000">flowcell_lane_info: HM7FMBBXX_16496360_S56_L005</text>
</g>
<!-- 6&#45;&gt;3 -->
<g id="edge7" class="edge">
<title>6&#45;&gt;3</title>
<path fill="none" stroke="#c0c0c0" stroke-width="2" d="M3141.8447,-197.9629C3041.7889,-180.6481 2939.2893,-162.9105 2864.5168,-149.9711"/>
<polygon fill="#c0c0c0" stroke="#c0c0c0" stroke-width="2" points="2865.0662,-146.5142 2854.6158,-148.2577 2863.8725,-153.4117 2865.0662,-146.5142"/>
</g>
<!-- 7 -->
<g id="node8" class="node">
<title>7</title>
<path fill="none" stroke="#afd856" stroke-width="2" d="M3046.5,-514C3046.5,-514 2517.5,-514 2517.5,-514 2511.5,-514 2505.5,-508 2505.5,-502 2505.5,-502 2505.5,-463 2505.5,-463 2505.5,-457 2511.5,-451 2517.5,-451 2517.5,-451 3046.5,-451 3046.5,-451 3052.5,-451 3058.5,-457 3058.5,-463 3058.5,-463 3058.5,-502 3058.5,-502 3058.5,-508 3052.5,-514 3046.5,-514"/>
<text text-anchor="middle" x="2782" y="-470" font-family="sans" font-size="50.00" fill="#000000">download_references</text>
</g>
<!-- 7&#45;&gt;4 -->
<g id="edge10" class="edge">
<title>7&#45;&gt;4</title>
<path fill="none" stroke="#c0c0c0" stroke-width="2" d="M2782,-450.9036C2782,-442.777 2782,-433.9064 2782,-425.3485"/>
<polygon fill="#c0c0c0" stroke="#c0c0c0" stroke-width="2" points="2785.5001,-425.1358 2782,-415.1358 2778.5001,-425.1358 2785.5001,-425.1358"/>
</g>
</g>
</svg>
