<?xml version="1.0" encoding="UTF-8" standalone="no"?>
<!DOCTYPE svg PUBLIC "-//W3C//DTD SVG 1.1//EN"
 "http://www.w3.org/Graphics/SVG/1.1/DTD/svg11.dtd">
<!-- Generated by graphviz version 2.40.1 (20161225.0304)
 -->
<!-- Title: snakemake_dag Pages: 1 -->
<svg width="22345pt" height="522pt"
 viewBox="0.00 0.00 22344.50 522.00" xmlns="http://www.w3.org/2000/svg" xmlns:xlink="http://www.w3.org/1999/xlink">
<g id="graph0" class="graph" transform="scale(1 1) rotate(0) translate(4 518)">
<title>snakemake_dag</title>
<polygon fill="#ffffff" stroke="transparent" points="-4,4 -4,-518 22340.5,-518 22340.5,4 -4,4"/>
<!-- 0 -->
<g id="node1" class="node">
<title>0</title>
<path fill="none" stroke="#56a9d8" stroke-width="2" d="M6308,-63C6308,-63 6256,-63 6256,-63 6250,-63 6244,-57 6244,-51 6244,-51 6244,-12 6244,-12 6244,-6 6250,0 6256,0 6256,0 6308,0 6308,0 6314,0 6320,-6 6320,-12 6320,-12 6320,-51 6320,-51 6320,-57 6314,-63 6308,-63"/>
<text text-anchor="middle" x="6282" y="-19" font-family="sans" font-size="50.00" fill="#000000">all</text>
</g>
<!-- 1 -->
<g id="node2" class="node">
<title>1</title>
<path fill="none" stroke="#afd856" stroke-width="2" d="M1368,-316C1368,-316 12,-316 12,-316 6,-316 0,-310 0,-304 0,-304 0,-210 0,-210 0,-204 6,-198 12,-198 12,-198 1368,-198 1368,-198 1374,-198 1380,-204 1380,-210 1380,-210 1380,-304 1380,-304 1380,-310 1374,-316 1368,-316"/>
<text text-anchor="middle" x="690" y="-272" font-family="sans" font-size="50.00" fill="#000000">salmon_quant</text>
<text text-anchor="middle" x="690" y="-217" font-family="sans" font-size="50.00" fill="#000000">flowcell_lane_info: HFYYTDSXX_18804116_S102_L002</text>
</g>
<!-- 1&#45;&gt;0 -->
<g id="edge1" class="edge">
<title>1&#45;&gt;0</title>
<path fill="none" stroke="#c0c0c0" stroke-width="2" d="M1380.3229,-198.5876C1383.2216,-198.3903 1386.1141,-198.1944 1389,-198 2261.9067,-139.1995 2480.7037,-131.0882 3355,-99 4522.8779,-56.1368 5953.9406,-35.8194 6233.4133,-32.1244"/>
<polygon fill="#c0c0c0" stroke="#c0c0c0" stroke-width="2" points="6233.6669,-35.6215 6243.6199,-31.9901 6233.5747,-28.6221 6233.6669,-35.6215"/>
</g>
<!-- 9 -->
<g id="node10" class="node">
<title>9</title>
<path fill="none" stroke="#59d856" stroke-width="2" d="M10566.5,-162C10566.5,-162 10385.5,-162 10385.5,-162 10379.5,-162 10373.5,-156 10373.5,-150 10373.5,-150 10373.5,-111 10373.5,-111 10373.5,-105 10379.5,-99 10385.5,-99 10385.5,-99 10566.5,-99 10566.5,-99 10572.5,-99 10578.5,-105 10578.5,-111 10578.5,-111 10578.5,-150 10578.5,-150 10578.5,-156 10572.5,-162 10566.5,-162"/>
<text text-anchor="middle" x="10476" y="-118" font-family="sans" font-size="50.00" fill="#000000">multiqc</text>
</g>
<!-- 1&#45;&gt;9 -->
<g id="edge26" class="edge">
<title>1&#45;&gt;9</title>
<path fill="none" stroke="#c0c0c0" stroke-width="2" d="M1380.3126,-198.4052C1383.2147,-198.2676 1386.1106,-198.1325 1389,-198 2327.1991,-154.9841 9382.206,-133.5904 10362.9732,-130.8122"/>
<polygon fill="#c0c0c0" stroke="#c0c0c0" stroke-width="2" points="10363.2055,-134.3117 10373.1955,-130.7833 10363.1856,-127.3117 10363.2055,-134.3117"/>
</g>
<!-- 2 -->
<g id="node3" class="node">
<title>2</title>
<path fill="none" stroke="#afd856" stroke-width="2" d="M2766,-316C2766,-316 1410,-316 1410,-316 1404,-316 1398,-310 1398,-304 1398,-304 1398,-210 1398,-210 1398,-204 1404,-198 1410,-198 1410,-198 2766,-198 2766,-198 2772,-198 2778,-204 2778,-210 2778,-210 2778,-304 2778,-304 2778,-310 2772,-316 2766,-316"/>
<text text-anchor="middle" x="2088" y="-272" font-family="sans" font-size="50.00" fill="#000000">salmon_quant</text>
<text text-anchor="middle" x="2088" y="-217" font-family="sans" font-size="50.00" fill="#000000">flowcell_lane_info: HFYYTDSXX_18804118_S122_L002</text>
</g>
<!-- 2&#45;&gt;0 -->
<g id="edge2" class="edge">
<title>2&#45;&gt;0</title>
<path fill="none" stroke="#c0c0c0" stroke-width="2" d="M2778.3238,-198.6005C2781.2222,-198.3989 2784.1144,-198.1988 2787,-198 4193.7157,-101.0974 5922.851,-43.0344 6233.1705,-33.0462"/>
<polygon fill="#c0c0c0" stroke="#c0c0c0" stroke-width="2" points="6233.7257,-36.5303 6243.6082,-32.7112 6233.501,-29.5339 6233.7257,-36.5303"/>
</g>
<!-- 2&#45;&gt;9 -->
<g id="edge27" class="edge">
<title>2&#45;&gt;9</title>
<path fill="none" stroke="#c0c0c0" stroke-width="2" d="M2778.3129,-198.411C2781.2149,-198.2714 2784.1107,-198.1344 2787,-198 3575.5718,-161.3108 9471.4053,-134.7939 10363.1477,-130.9748"/>
<polygon fill="#c0c0c0" stroke="#c0c0c0" stroke-width="2" points="10363.4225,-134.4737 10373.4074,-130.9309 10363.3924,-127.4738 10363.4225,-134.4737"/>
</g>
<!-- 3 -->
<g id="node4" class="node">
<title>3</title>
<path fill="none" stroke="#afd856" stroke-width="2" d="M4164,-316C4164,-316 2808,-316 2808,-316 2802,-316 2796,-310 2796,-304 2796,-304 2796,-210 2796,-210 2796,-204 2802,-198 2808,-198 2808,-198 4164,-198 4164,-198 4170,-198 4176,-204 4176,-210 4176,-210 4176,-304 4176,-304 4176,-310 4170,-316 4164,-316"/>
<text text-anchor="middle" x="3486" y="-272" font-family="sans" font-size="50.00" fill="#000000">salmon_quant</text>
<text text-anchor="middle" x="3486" y="-217" font-family="sans" font-size="50.00" fill="#000000">flowcell_lane_info: HFYYTDSXX_18804120_S113_L002</text>
</g>
<!-- 3&#45;&gt;0 -->
<g id="edge3" class="edge">
<title>3&#45;&gt;0</title>
<path fill="none" stroke="#c0c0c0" stroke-width="2" d="M4176.3321,-198.7104C4179.2278,-198.4729 4182.1172,-198.2361 4185,-198 5004.5746,-130.875 6004.6885,-53.0241 6233.7284,-35.2434"/>
<polygon fill="#c0c0c0" stroke="#c0c0c0" stroke-width="2" points="6234.04,-38.7299 6243.7391,-34.4664 6233.4982,-31.7509 6234.04,-38.7299"/>
</g>
<!-- 3&#45;&gt;9 -->
<g id="edge28" class="edge">
<title>3&#45;&gt;9</title>
<path fill="none" stroke="#c0c0c0" stroke-width="2" d="M4176.3132,-198.4193C4179.2151,-198.277 4182.1108,-198.1372 4185,-198 5455.9116,-137.6271 9623.9244,-131.236 10363.3415,-130.5747"/>
<polygon fill="#c0c0c0" stroke="#c0c0c0" stroke-width="2" points="10363.4583,-134.0747 10373.4552,-130.5659 10363.4521,-127.0747 10363.4583,-134.0747"/>
</g>
<!-- 4 -->
<g id="node5" class="node">
<title>4</title>
<path fill="none" stroke="#afd856" stroke-width="2" d="M5562,-316C5562,-316 4206,-316 4206,-316 4200,-316 4194,-310 4194,-304 4194,-304 4194,-210 4194,-210 4194,-204 4200,-198 4206,-198 4206,-198 5562,-198 5562,-198 5568,-198 5574,-204 5574,-210 5574,-210 5574,-304 5574,-304 5574,-310 5568,-316 5562,-316"/>
<text text-anchor="middle" x="4884" y="-272" font-family="sans" font-size="50.00" fill="#000000">salmon_quant</text>
<text text-anchor="middle" x="4884" y="-217" font-family="sans" font-size="50.00" fill="#000000">flowcell_lane_info: HFYYTDSXX_18804122_S118_L002</text>
</g>
<!-- 4&#45;&gt;0 -->
<g id="edge4" class="edge">
<title>4&#45;&gt;0</title>
<path fill="none" stroke="#c0c0c0" stroke-width="2" d="M5249.9383,-197.9735C5594.7434,-142.3558 6080.6586,-63.9767 6233.8214,-39.2713"/>
<polygon fill="#c0c0c0" stroke="#c0c0c0" stroke-width="2" points="6234.5313,-42.7021 6243.8463,-37.6543 6233.4165,-35.7914 6234.5313,-42.7021"/>
</g>
<!-- 4&#45;&gt;9 -->
<g id="edge29" class="edge">
<title>4&#45;&gt;9</title>
<path fill="none" stroke="#c0c0c0" stroke-width="2" d="M5574.3139,-198.4323C5577.2156,-198.2858 5580.1111,-198.1417 5583,-198 6557.8,-150.196 9724.1568,-133.8286 10363.0358,-130.9754"/>
<polygon fill="#c0c0c0" stroke="#c0c0c0" stroke-width="2" points="10363.1796,-134.4749 10373.1639,-130.9304 10363.1484,-127.475 10363.1796,-134.4749"/>
</g>
<!-- 5 -->
<g id="node6" class="node">
<title>5</title>
<path fill="none" stroke="#afd856" stroke-width="2" d="M6960,-316C6960,-316 5604,-316 5604,-316 5598,-316 5592,-310 5592,-304 5592,-304 5592,-210 5592,-210 5592,-204 5598,-198 5604,-198 5604,-198 6960,-198 6960,-198 6966,-198 6972,-204 6972,-210 6972,-210 6972,-304 6972,-304 6972,-310 6966,-316 6960,-316"/>
<text text-anchor="middle" x="6282" y="-272" font-family="sans" font-size="50.00" fill="#000000">salmon_quant</text>
<text text-anchor="middle" x="6282" y="-217" font-family="sans" font-size="50.00" fill="#000000">flowcell_lane_info: HFYYTDSXX_18804124_S121_L002</text>
</g>
<!-- 5&#45;&gt;0 -->
<g id="edge5" class="edge">
<title>5&#45;&gt;0</title>
<path fill="none" stroke="#c0c0c0" stroke-width="2" d="M6282,-197.7525C6282,-158.7273 6282,-108.5698 6282,-73.5995"/>
<polygon fill="#c0c0c0" stroke="#c0c0c0" stroke-width="2" points="6285.5001,-73.2633 6282,-63.2633 6278.5001,-73.2634 6285.5001,-73.2633"/>
</g>
<!-- 5&#45;&gt;9 -->
<g id="edge30" class="edge">
<title>5&#45;&gt;9</title>
<path fill="none" stroke="#c0c0c0" stroke-width="2" d="M6972.3151,-198.4558C6975.2164,-198.3016 6978.1115,-198.1496 6981,-198 7662.0987,-162.7156 9841.2524,-137.3577 10362.9823,-131.694"/>
<polygon fill="#c0c0c0" stroke="#c0c0c0" stroke-width="2" points="10363.1869,-135.1921 10373.1483,-131.5839 10363.111,-128.1925 10363.1869,-135.1921"/>
</g>
<!-- 6 -->
<g id="node7" class="node">
<title>6</title>
<path fill="none" stroke="#afd856" stroke-width="2" d="M8358,-316C8358,-316 7002,-316 7002,-316 6996,-316 6990,-310 6990,-304 6990,-304 6990,-210 6990,-210 6990,-204 6996,-198 7002,-198 7002,-198 8358,-198 8358,-198 8364,-198 8370,-204 8370,-210 8370,-210 8370,-304 8370,-304 8370,-310 8364,-316 8358,-316"/>
<text text-anchor="middle" x="7680" y="-272" font-family="sans" font-size="50.00" fill="#000000">salmon_quant</text>
<text text-anchor="middle" x="7680" y="-217" font-family="sans" font-size="50.00" fill="#000000">flowcell_lane_info: HFYYTDSXX_18804126_S105_L002</text>
</g>
<!-- 6&#45;&gt;0 -->
<g id="edge6" class="edge">
<title>6&#45;&gt;0</title>
<path fill="none" stroke="#c0c0c0" stroke-width="2" d="M7314.0617,-197.9735C6969.2566,-142.3558 6483.3414,-63.9767 6330.1786,-39.2713"/>
<polygon fill="#c0c0c0" stroke="#c0c0c0" stroke-width="2" points="6330.5835,-35.7914 6320.1537,-37.6543 6329.4687,-42.7021 6330.5835,-35.7914"/>
</g>
<!-- 6&#45;&gt;9 -->
<g id="edge31" class="edge">
<title>6&#45;&gt;9</title>
<path fill="none" stroke="#c0c0c0" stroke-width="2" d="M8370.3181,-198.5105C8373.2184,-198.3384 8376.1125,-198.1682 8379,-198 9136.228,-153.8854 10049.0757,-136.8764 10363.3337,-132.0653"/>
<polygon fill="#c0c0c0" stroke="#c0c0c0" stroke-width="2" points="10363.4128,-135.5646 10373.3584,-131.9128 10363.3063,-128.5654 10363.4128,-135.5646"/>
</g>
<!-- 7 -->
<g id="node8" class="node">
<title>7</title>
<path fill="none" stroke="#afd856" stroke-width="2" d="M9756,-316C9756,-316 8400,-316 8400,-316 8394,-316 8388,-310 8388,-304 8388,-304 8388,-210 8388,-210 8388,-204 8394,-198 8400,-198 8400,-198 9756,-198 9756,-198 9762,-198 9768,-204 9768,-210 9768,-210 9768,-304 9768,-304 9768,-310 9762,-316 9756,-316"/>
<text text-anchor="middle" x="9078" y="-272" font-family="sans" font-size="50.00" fill="#000000">salmon_quant</text>
<text text-anchor="middle" x="9078" y="-217" font-family="sans" font-size="50.00" fill="#000000">flowcell_lane_info: HFYYTDSXX_18804128_S104_L002</text>
</g>
<!-- 7&#45;&gt;0 -->
<g id="edge7" class="edge">
<title>7&#45;&gt;0</title>
<path fill="none" stroke="#c0c0c0" stroke-width="2" d="M8387.6679,-198.7104C8384.7722,-198.4729 8381.8828,-198.2361 8379,-198 7559.4254,-130.875 6559.3115,-53.0241 6330.2716,-35.2434"/>
<polygon fill="#c0c0c0" stroke="#c0c0c0" stroke-width="2" points="6330.5018,-31.7509 6320.2609,-34.4664 6329.96,-38.7299 6330.5018,-31.7509"/>
</g>
<!-- 7&#45;&gt;9 -->
<g id="edge32" class="edge">
<title>7&#45;&gt;9</title>
<path fill="none" stroke="#c0c0c0" stroke-width="2" d="M9730.1866,-197.986C9972.8501,-176.0282 10223.0713,-153.3866 10363.1648,-140.71"/>
<polygon fill="#c0c0c0" stroke="#c0c0c0" stroke-width="2" points="10363.8297,-144.1643 10373.4736,-139.7772 10363.1989,-137.1928 10363.8297,-144.1643"/>
</g>
<!-- 8 -->
<g id="node9" class="node">
<title>8</title>
<path fill="none" stroke="#afd856" stroke-width="2" d="M22324.5,-316C22324.5,-316 20975.5,-316 20975.5,-316 20969.5,-316 20963.5,-310 20963.5,-304 20963.5,-304 20963.5,-210 20963.5,-210 20963.5,-204 20969.5,-198 20975.5,-198 20975.5,-198 22324.5,-198 22324.5,-198 22330.5,-198 22336.5,-204 22336.5,-210 22336.5,-210 22336.5,-304 22336.5,-304 22336.5,-310 22330.5,-316 22324.5,-316"/>
<text text-anchor="middle" x="21650" y="-272" font-family="sans" font-size="50.00" fill="#000000">salmon_quant</text>
<text text-anchor="middle" x="21650" y="-217" font-family="sans" font-size="50.00" fill="#000000">flowcell_lane_info: HM7FMBBXX_16496360_S56_L005</text>
</g>
<!-- 8&#45;&gt;0 -->
<g id="edge8" class="edge">
<title>8&#45;&gt;0</title>
<path fill="none" stroke="#c0c0c0" stroke-width="2" d="M20963.1816,-198.3991C20960.4488,-198.2638 20957.7215,-198.1308 20955,-198 17821.4502,-47.4176 7136.4459,-32.4681 6330.2232,-31.5505"/>
<polygon fill="#c0c0c0" stroke="#c0c0c0" stroke-width="2" points="6330.1302,-28.0505 6320.1263,-31.5392 6330.1223,-35.0505 6330.1302,-28.0505"/>
</g>
<!-- 8&#45;&gt;9 -->
<g id="edge33" class="edge">
<title>8&#45;&gt;9</title>
<path fill="none" stroke="#c0c0c0" stroke-width="2" d="M20963.1826,-198.3794C20960.4494,-198.2506 20957.7218,-198.1241 20955,-198 20682.2614,-185.564 11702.6013,-137.0754 10588.9468,-131.1041"/>
<polygon fill="#c0c0c0" stroke="#c0c0c0" stroke-width="2" points="10588.5678,-127.6021 10578.5492,-131.0484 10588.5302,-134.602 10588.5678,-127.6021"/>
</g>
<!-- 9&#45;&gt;0 -->
<g id="edge9" class="edge">
<title>9&#45;&gt;0</title>
<path fill="none" stroke="#c0c0c0" stroke-width="2" d="M10373.369,-128.0774C9775.2382,-113.9584 6751.1772,-42.575 6330.58,-32.6467"/>
<polygon fill="#c0c0c0" stroke="#c0c0c0" stroke-width="2" points="6330.3683,-29.1409 6320.2885,-32.4038 6330.2031,-36.1389 6330.3683,-29.1409"/>
</g>
<!-- 10 -->
<g id="node11" class="node">
<title>10</title>
<path fill="none" stroke="#d8ac56" stroke-width="2" d="M5752,-415C5752,-415 5414,-415 5414,-415 5408,-415 5402,-409 5402,-403 5402,-403 5402,-364 5402,-364 5402,-358 5408,-352 5414,-352 5414,-352 5752,-352 5752,-352 5758,-352 5764,-358 5764,-364 5764,-364 5764,-403 5764,-403 5764,-409 5758,-415 5752,-415"/>
<text text-anchor="middle" x="5583" y="-371" font-family="sans" font-size="50.00" fill="#000000">salmon_index</text>
</g>
<!-- 10&#45;&gt;1 -->
<g id="edge10" class="edge">
<title>10&#45;&gt;1</title>
<path fill="none" stroke="#c0c0c0" stroke-width="2" d="M5401.7107,-382.2291C4706.4048,-377.0999 2208.6352,-356.2665 1390.4563,-316.0616"/>
<polygon fill="#c0c0c0" stroke="#c0c0c0" stroke-width="2" points="1390.4757,-312.5583 1380.3144,-315.5579 1390.1284,-319.5497 1390.4757,-312.5583"/>
</g>
<!-- 10&#45;&gt;2 -->
<g id="edge11" class="edge">
<title>10&#45;&gt;2</title>
<path fill="none" stroke="#c0c0c0" stroke-width="2" d="M5401.7142,-382.8918C4957.8191,-380.5847 3780.8342,-369.5282 2788.5196,-316.0752"/>
<polygon fill="#c0c0c0" stroke="#c0c0c0" stroke-width="2" points="2788.4905,-312.5686 2778.3161,-315.5237 2788.1126,-319.5584 2788.4905,-312.5686"/>
</g>
<!-- 10&#45;&gt;3 -->
<g id="edge12" class="edge">
<title>10&#45;&gt;3</title>
<path fill="none" stroke="#c0c0c0" stroke-width="2" d="M5401.9128,-376.8382C5137.2953,-366.635 4629.189,-345.2716 4186.4401,-316.0902"/>
<polygon fill="#c0c0c0" stroke="#c0c0c0" stroke-width="2" points="4186.5315,-312.5887 4176.3223,-315.4212 4186.0696,-319.5734 4186.5315,-312.5887"/>
</g>
<!-- 10&#45;&gt;4 -->
<g id="edge13" class="edge">
<title>10&#45;&gt;4</title>
<path fill="none" stroke="#c0c0c0" stroke-width="2" d="M5408.8658,-351.9864C5351.4629,-341.5981 5285.5412,-329.668 5220.2377,-317.8499"/>
<polygon fill="#c0c0c0" stroke="#c0c0c0" stroke-width="2" points="5220.6503,-314.3678 5210.1868,-316.031 5219.4037,-321.2559 5220.6503,-314.3678"/>
</g>
<!-- 10&#45;&gt;5 -->
<g id="edge14" class="edge">
<title>10&#45;&gt;5</title>
<path fill="none" stroke="#c0c0c0" stroke-width="2" d="M5757.1342,-351.9864C5814.5371,-341.5981 5880.4588,-329.668 5945.7623,-317.8499"/>
<polygon fill="#c0c0c0" stroke="#c0c0c0" stroke-width="2" points="5946.5963,-321.2559 5955.8132,-316.031 5945.3497,-314.3678 5946.5963,-321.2559"/>
</g>
<!-- 10&#45;&gt;6 -->
<g id="edge15" class="edge">
<title>10&#45;&gt;6</title>
<path fill="none" stroke="#c0c0c0" stroke-width="2" d="M5764.0872,-376.8382C6028.7047,-366.635 6536.811,-345.2716 6979.5599,-316.0902"/>
<polygon fill="#c0c0c0" stroke="#c0c0c0" stroke-width="2" points="6979.9304,-319.5734 6989.6777,-315.4212 6979.4685,-312.5887 6979.9304,-319.5734"/>
</g>
<!-- 10&#45;&gt;7 -->
<g id="edge16" class="edge">
<title>10&#45;&gt;7</title>
<path fill="none" stroke="#c0c0c0" stroke-width="2" d="M5764.2858,-382.8918C6208.1809,-380.5847 7385.1658,-369.5282 8377.4804,-316.0752"/>
<polygon fill="#c0c0c0" stroke="#c0c0c0" stroke-width="2" points="8377.8874,-319.5584 8387.6839,-315.5237 8377.5095,-312.5686 8377.8874,-319.5584"/>
</g>
<!-- 10&#45;&gt;8 -->
<g id="edge17" class="edge">
<title>10&#45;&gt;8</title>
<path fill="none" stroke="#c0c0c0" stroke-width="2" d="M5764.1881,-383.1218C7430.9834,-379.5913 20055.7733,-351.7441 20952.8747,-316.0622"/>
<polygon fill="#c0c0c0" stroke="#c0c0c0" stroke-width="2" points="20953.3388,-319.5459 20963.1829,-315.6288 20953.0447,-312.552 20953.3388,-319.5459"/>
</g>
<!-- 11 -->
<g id="node12" class="node">
<title>11</title>
<path fill="none" stroke="#56d8a9" stroke-width="2" d="M11154,-316C11154,-316 9798,-316 9798,-316 9792,-316 9786,-310 9786,-304 9786,-304 9786,-210 9786,-210 9786,-204 9792,-198 9798,-198 9798,-198 11154,-198 11154,-198 11160,-198 11166,-204 11166,-210 11166,-210 11166,-304 11166,-304 11166,-310 11160,-316 11154,-316"/>
<text text-anchor="middle" x="10476" y="-272" font-family="sans" font-size="50.00" fill="#000000">fastqc</text>
<text text-anchor="middle" x="10476" y="-217" font-family="sans" font-size="50.00" fill="#000000">flowcell_lane_info: HFYYTDSXX_18804116_S102_L002</text>
</g>
<!-- 11&#45;&gt;9 -->
<g id="edge18" class="edge">
<title>11&#45;&gt;9</title>
<path fill="none" stroke="#c0c0c0" stroke-width="2" d="M10476,-197.8242C10476,-189.1433 10476,-180.3597 10476,-172.131"/>
<polygon fill="#c0c0c0" stroke="#c0c0c0" stroke-width="2" points="10479.5001,-172.0542 10476,-162.0543 10472.5001,-172.0543 10479.5001,-172.0542"/>
</g>
<!-- 12 -->
<g id="node13" class="node">
<title>12</title>
<path fill="none" stroke="#56d8a9" stroke-width="2" d="M12552,-316C12552,-316 11196,-316 11196,-316 11190,-316 11184,-310 11184,-304 11184,-304 11184,-210 11184,-210 11184,-204 11190,-198 11196,-198 11196,-198 12552,-198 12552,-198 12558,-198 12564,-204 12564,-210 12564,-210 12564,-304 12564,-304 12564,-310 12558,-316 12552,-316"/>
<text text-anchor="middle" x="11874" y="-272" font-family="sans" font-size="50.00" fill="#000000">fastqc</text>
<text text-anchor="middle" x="11874" y="-217" font-family="sans" font-size="50.00" fill="#000000">flowcell_lane_info: HFYYTDSXX_18804118_S122_L002</text>
</g>
<!-- 12&#45;&gt;9 -->
<g id="edge19" class="edge">
<title>12&#45;&gt;9</title>
<path fill="none" stroke="#c0c0c0" stroke-width="2" d="M11221.8134,-197.986C10979.1499,-176.0282 10728.9287,-153.3866 10588.8352,-140.71"/>
<polygon fill="#c0c0c0" stroke="#c0c0c0" stroke-width="2" points="10588.8011,-137.1928 10578.5264,-139.7772 10588.1703,-144.1643 10588.8011,-137.1928"/>
</g>
<!-- 13 -->
<g id="node14" class="node">
<title>13</title>
<path fill="none" stroke="#56d8a9" stroke-width="2" d="M13950,-316C13950,-316 12594,-316 12594,-316 12588,-316 12582,-310 12582,-304 12582,-304 12582,-210 12582,-210 12582,-204 12588,-198 12594,-198 12594,-198 13950,-198 13950,-198 13956,-198 13962,-204 13962,-210 13962,-210 13962,-304 13962,-304 13962,-310 13956,-316 13950,-316"/>
<text text-anchor="middle" x="13272" y="-272" font-family="sans" font-size="50.00" fill="#000000">fastqc</text>
<text text-anchor="middle" x="13272" y="-217" font-family="sans" font-size="50.00" fill="#000000">flowcell_lane_info: HFYYTDSXX_18804120_S113_L002</text>
</g>
<!-- 13&#45;&gt;9 -->
<g id="edge20" class="edge">
<title>13&#45;&gt;9</title>
<path fill="none" stroke="#c0c0c0" stroke-width="2" d="M12581.6819,-198.5105C12578.7816,-198.3384 12575.8875,-198.1682 12573,-198 11815.772,-153.8854 10902.9243,-136.8764 10588.6663,-132.0653"/>
<polygon fill="#c0c0c0" stroke="#c0c0c0" stroke-width="2" points="10588.6937,-128.5654 10578.6416,-131.9128 10588.5872,-135.5646 10588.6937,-128.5654"/>
</g>
<!-- 14 -->
<g id="node15" class="node">
<title>14</title>
<path fill="none" stroke="#56d8a9" stroke-width="2" d="M15348,-316C15348,-316 13992,-316 13992,-316 13986,-316 13980,-310 13980,-304 13980,-304 13980,-210 13980,-210 13980,-204 13986,-198 13992,-198 13992,-198 15348,-198 15348,-198 15354,-198 15360,-204 15360,-210 15360,-210 15360,-304 15360,-304 15360,-310 15354,-316 15348,-316"/>
<text text-anchor="middle" x="14670" y="-272" font-family="sans" font-size="50.00" fill="#000000">fastqc</text>
<text text-anchor="middle" x="14670" y="-217" font-family="sans" font-size="50.00" fill="#000000">flowcell_lane_info: HFYYTDSXX_18804122_S118_L002</text>
</g>
<!-- 14&#45;&gt;9 -->
<g id="edge21" class="edge">
<title>14&#45;&gt;9</title>
<path fill="none" stroke="#c0c0c0" stroke-width="2" d="M13979.6849,-198.4558C13976.7836,-198.3016 13973.8885,-198.1496 13971,-198 13289.9013,-162.7156 11110.7476,-137.3577 10589.0177,-131.694"/>
<polygon fill="#c0c0c0" stroke="#c0c0c0" stroke-width="2" points="10588.889,-128.1925 10578.8517,-131.5839 10588.8131,-135.1921 10588.889,-128.1925"/>
</g>
<!-- 15 -->
<g id="node16" class="node">
<title>15</title>
<path fill="none" stroke="#56d8a9" stroke-width="2" d="M16746,-316C16746,-316 15390,-316 15390,-316 15384,-316 15378,-310 15378,-304 15378,-304 15378,-210 15378,-210 15378,-204 15384,-198 15390,-198 15390,-198 16746,-198 16746,-198 16752,-198 16758,-204 16758,-210 16758,-210 16758,-304 16758,-304 16758,-310 16752,-316 16746,-316"/>
<text text-anchor="middle" x="16068" y="-272" font-family="sans" font-size="50.00" fill="#000000">fastqc</text>
<text text-anchor="middle" x="16068" y="-217" font-family="sans" font-size="50.00" fill="#000000">flowcell_lane_info: HFYYTDSXX_18804124_S121_L002</text>
</g>
<!-- 15&#45;&gt;9 -->
<g id="edge22" class="edge">
<title>15&#45;&gt;9</title>
<path fill="none" stroke="#c0c0c0" stroke-width="2" d="M15377.6861,-198.4323C15374.7844,-198.2858 15371.8889,-198.1417 15369,-198 14394.2,-150.196 11227.8432,-133.8286 10588.9642,-130.9754"/>
<polygon fill="#c0c0c0" stroke="#c0c0c0" stroke-width="2" points="10588.8516,-127.475 10578.8361,-130.9304 10588.8204,-134.4749 10588.8516,-127.475"/>
</g>
<!-- 16 -->
<g id="node17" class="node">
<title>16</title>
<path fill="none" stroke="#56d8a9" stroke-width="2" d="M18144,-316C18144,-316 16788,-316 16788,-316 16782,-316 16776,-310 16776,-304 16776,-304 16776,-210 16776,-210 16776,-204 16782,-198 16788,-198 16788,-198 18144,-198 18144,-198 18150,-198 18156,-204 18156,-210 18156,-210 18156,-304 18156,-304 18156,-310 18150,-316 18144,-316"/>
<text text-anchor="middle" x="17466" y="-272" font-family="sans" font-size="50.00" fill="#000000">fastqc</text>
<text text-anchor="middle" x="17466" y="-217" font-family="sans" font-size="50.00" fill="#000000">flowcell_lane_info: HFYYTDSXX_18804126_S105_L002</text>
</g>
<!-- 16&#45;&gt;9 -->
<g id="edge23" class="edge">
<title>16&#45;&gt;9</title>
<path fill="none" stroke="#c0c0c0" stroke-width="2" d="M16775.6868,-198.4193C16772.7849,-198.277 16769.8892,-198.1372 16767,-198 15496.0884,-137.6271 11328.0756,-131.236 10588.6585,-130.5747"/>
<polygon fill="#c0c0c0" stroke="#c0c0c0" stroke-width="2" points="10588.5479,-127.0747 10578.5448,-130.5659 10588.5417,-134.0747 10588.5479,-127.0747"/>
</g>
<!-- 17 -->
<g id="node18" class="node">
<title>17</title>
<path fill="none" stroke="#56d8a9" stroke-width="2" d="M19542,-316C19542,-316 18186,-316 18186,-316 18180,-316 18174,-310 18174,-304 18174,-304 18174,-210 18174,-210 18174,-204 18180,-198 18186,-198 18186,-198 19542,-198 19542,-198 19548,-198 19554,-204 19554,-210 19554,-210 19554,-304 19554,-304 19554,-310 19548,-316 19542,-316"/>
<text text-anchor="middle" x="18864" y="-272" font-family="sans" font-size="50.00" fill="#000000">fastqc</text>
<text text-anchor="middle" x="18864" y="-217" font-family="sans" font-size="50.00" fill="#000000">flowcell_lane_info: HFYYTDSXX_18804128_S104_L002</text>
</g>
<!-- 17&#45;&gt;9 -->
<g id="edge24" class="edge">
<title>17&#45;&gt;9</title>
<path fill="none" stroke="#c0c0c0" stroke-width="2" d="M18173.6871,-198.411C18170.7851,-198.2714 18167.8893,-198.1344 18165,-198 17376.4282,-161.3108 11480.5947,-134.7939 10588.8523,-130.9748"/>
<polygon fill="#c0c0c0" stroke="#c0c0c0" stroke-width="2" points="10588.6076,-127.4738 10578.5926,-130.9309 10588.5775,-134.4737 10588.6076,-127.4738"/>
</g>
<!-- 18 -->
<g id="node19" class="node">
<title>18</title>
<path fill="none" stroke="#56d8a9" stroke-width="2" d="M20933.5,-316C20933.5,-316 19584.5,-316 19584.5,-316 19578.5,-316 19572.5,-310 19572.5,-304 19572.5,-304 19572.5,-210 19572.5,-210 19572.5,-204 19578.5,-198 19584.5,-198 19584.5,-198 20933.5,-198 20933.5,-198 20939.5,-198 20945.5,-204 20945.5,-210 20945.5,-210 20945.5,-304 20945.5,-304 20945.5,-310 20939.5,-316 20933.5,-316"/>
<text text-anchor="middle" x="20259" y="-272" font-family="sans" font-size="50.00" fill="#000000">fastqc</text>
<text text-anchor="middle" x="20259" y="-217" font-family="sans" font-size="50.00" fill="#000000">flowcell_lane_info: HM7FMBBXX_16496360_S56_L005</text>
</g>
<!-- 18&#45;&gt;9 -->
<g id="edge25" class="edge">
<title>18&#45;&gt;9</title>
<path fill="none" stroke="#c0c0c0" stroke-width="2" d="M19572.1066,-198.4268C19569.0641,-198.2817 19566.0285,-198.1394 19563,-198 19092.8039,-176.3567 11600.2794,-136.3956 10588.6809,-131.0878"/>
<polygon fill="#c0c0c0" stroke="#c0c0c0" stroke-width="2" points="10588.52,-127.587 10578.5017,-131.0344 10588.4832,-134.5869 10588.52,-127.587"/>
</g>
<!-- 19 -->
<g id="node20" class="node">
<title>19</title>
<path fill="none" stroke="#d85656" stroke-width="2" d="M5847.5,-514C5847.5,-514 5318.5,-514 5318.5,-514 5312.5,-514 5306.5,-508 5306.5,-502 5306.5,-502 5306.5,-463 5306.5,-463 5306.5,-457 5312.5,-451 5318.5,-451 5318.5,-451 5847.5,-451 5847.5,-451 5853.5,-451 5859.5,-457 5859.5,-463 5859.5,-463 5859.5,-502 5859.5,-502 5859.5,-508 5853.5,-514 5847.5,-514"/>
<text text-anchor="middle" x="5583" y="-470" font-family="sans" font-size="50.00" fill="#000000">download_references</text>
</g>
<!-- 19&#45;&gt;10 -->
<g id="edge34" class="edge">
<title>19&#45;&gt;10</title>
<path fill="none" stroke="#c0c0c0" stroke-width="2" d="M5583,-450.9036C5583,-442.777 5583,-433.9064 5583,-425.3485"/>
<polygon fill="#c0c0c0" stroke="#c0c0c0" stroke-width="2" points="5586.5001,-425.1358 5583,-415.1358 5579.5001,-425.1358 5586.5001,-425.1358"/>
</g>
</g>
</svg>
