<?xml version="1.0" encoding="UTF-8" standalone="no"?>
<!DOCTYPE svg PUBLIC "-//W3C//DTD SVG 1.1//EN"
 "http://www.w3.org/Graphics/SVG/1.1/DTD/svg11.dtd">
<!-- Generated by graphviz version 2.40.1 (20161225.0304)
 -->
<!-- Title: snakemake_dag Pages: 1 -->
<svg width="8365pt" height="522pt"
 viewBox="0.00 0.00 8364.50 522.00" xmlns="http://www.w3.org/2000/svg" xmlns:xlink="http://www.w3.org/1999/xlink">
<g id="graph0" class="graph" transform="scale(1 1) rotate(0) translate(4 518)">
<title>snakemake_dag</title>
<polygon fill="#ffffff" stroke="transparent" points="-4,4 -4,-518 8360.5,-518 8360.5,4 -4,4"/>
<!-- 0 -->
<g id="node1" class="node">
<title>0</title>
<path fill="none" stroke="#59d856" stroke-width="2" d="M3162,-63C3162,-63 3110,-63 3110,-63 3104,-63 3098,-57 3098,-51 3098,-51 3098,-12 3098,-12 3098,-6 3104,0 3110,0 3110,0 3162,0 3162,0 3168,0 3174,-6 3174,-12 3174,-12 3174,-51 3174,-51 3174,-57 3168,-63 3162,-63"/>
<text text-anchor="middle" x="3136" y="-19" font-family="sans" font-size="50.00" fill="#000000">all</text>
</g>
<!-- 1 -->
<g id="node2" class="node">
<title>1</title>
<path fill="none" stroke="#afd856" stroke-width="2" d="M1368,-316C1368,-316 12,-316 12,-316 6,-316 0,-310 0,-304 0,-304 0,-210 0,-210 0,-204 6,-198 12,-198 12,-198 1368,-198 1368,-198 1374,-198 1380,-204 1380,-210 1380,-210 1380,-304 1380,-304 1380,-310 1374,-316 1368,-316"/>
<text text-anchor="middle" x="690" y="-272" font-family="sans" font-size="50.00" fill="#000000">salmon_quant</text>
<text text-anchor="middle" x="690" y="-217" font-family="sans" font-size="50.00" fill="#000000">flowcell_lane_info: HFYYTDSXX_18804116_S102_L002</text>
</g>
<!-- 1&#45;&gt;0 -->
<g id="edge1" class="edge">
<title>1&#45;&gt;0</title>
<path fill="none" stroke="#c0c0c0" stroke-width="2" d="M1330.2611,-197.9735C1963.925,-139.5552 2869.971,-56.0256 3087.6521,-35.9573"/>
<polygon fill="#c0c0c0" stroke="#c0c0c0" stroke-width="2" points="3088.1526,-39.426 3097.789,-35.0227 3087.5099,-32.4556 3088.1526,-39.426"/>
</g>
<!-- 4 -->
<g id="node5" class="node">
<title>4</title>
<path fill="none" stroke="#56a9d8" stroke-width="2" d="M3576.5,-162C3576.5,-162 3395.5,-162 3395.5,-162 3389.5,-162 3383.5,-156 3383.5,-150 3383.5,-150 3383.5,-111 3383.5,-111 3383.5,-105 3389.5,-99 3395.5,-99 3395.5,-99 3576.5,-99 3576.5,-99 3582.5,-99 3588.5,-105 3588.5,-111 3588.5,-111 3588.5,-150 3588.5,-150 3588.5,-156 3582.5,-162 3576.5,-162"/>
<text text-anchor="middle" x="3486" y="-118" font-family="sans" font-size="50.00" fill="#000000">multiqc</text>
</g>
<!-- 1&#45;&gt;4 -->
<g id="edge11" class="edge">
<title>1&#45;&gt;4</title>
<path fill="none" stroke="#c0c0c0" stroke-width="2" d="M1380.3181,-198.5105C1383.2184,-198.3384 1386.1125,-198.1682 1389,-198 2146.228,-153.8854 3059.0757,-136.8764 3373.3337,-132.0653"/>
<polygon fill="#c0c0c0" stroke="#c0c0c0" stroke-width="2" points="3373.4128,-135.5646 3383.3584,-131.9128 3373.3063,-128.5654 3373.4128,-135.5646"/>
</g>
<!-- 2 -->
<g id="node3" class="node">
<title>2</title>
<path fill="none" stroke="#afd856" stroke-width="2" d="M2766,-316C2766,-316 1410,-316 1410,-316 1404,-316 1398,-310 1398,-304 1398,-304 1398,-210 1398,-210 1398,-204 1404,-198 1410,-198 1410,-198 2766,-198 2766,-198 2772,-198 2778,-204 2778,-210 2778,-210 2778,-304 2778,-304 2778,-310 2772,-316 2766,-316"/>
<text text-anchor="middle" x="2088" y="-272" font-family="sans" font-size="50.00" fill="#000000">salmon_quant</text>
<text text-anchor="middle" x="2088" y="-217" font-family="sans" font-size="50.00" fill="#000000">flowcell_lane_info: HFYYTDSXX_18804124_S121_L002</text>
</g>
<!-- 2&#45;&gt;0 -->
<g id="edge2" class="edge">
<title>2&#45;&gt;0</title>
<path fill="none" stroke="#c0c0c0" stroke-width="2" d="M2362.3228,-197.9735C2612.1387,-144.2202 2960.7636,-69.2059 3087.5092,-41.9339"/>
<polygon fill="#c0c0c0" stroke="#c0c0c0" stroke-width="2" points="3088.6254,-45.2739 3097.6654,-39.7485 3087.1529,-38.4305 3088.6254,-45.2739"/>
</g>
<!-- 2&#45;&gt;4 -->
<g id="edge12" class="edge">
<title>2&#45;&gt;4</title>
<path fill="none" stroke="#c0c0c0" stroke-width="2" d="M2740.1866,-197.986C2982.8501,-176.0282 3233.0713,-153.3866 3373.1648,-140.71"/>
<polygon fill="#c0c0c0" stroke="#c0c0c0" stroke-width="2" points="3373.8297,-144.1643 3383.4736,-139.7772 3373.1989,-137.1928 3373.8297,-144.1643"/>
</g>
<!-- 3 -->
<g id="node4" class="node">
<title>3</title>
<path fill="none" stroke="#afd856" stroke-width="2" d="M8344.5,-316C8344.5,-316 6995.5,-316 6995.5,-316 6989.5,-316 6983.5,-310 6983.5,-304 6983.5,-304 6983.5,-210 6983.5,-210 6983.5,-204 6989.5,-198 6995.5,-198 6995.5,-198 8344.5,-198 8344.5,-198 8350.5,-198 8356.5,-204 8356.5,-210 8356.5,-210 8356.5,-304 8356.5,-304 8356.5,-310 8350.5,-316 8344.5,-316"/>
<text text-anchor="middle" x="7670" y="-272" font-family="sans" font-size="50.00" fill="#000000">salmon_quant</text>
<text text-anchor="middle" x="7670" y="-217" font-family="sans" font-size="50.00" fill="#000000">flowcell_lane_info: HM7FMBBXX_16496360_S56_L005</text>
</g>
<!-- 3&#45;&gt;0 -->
<g id="edge3" class="edge">
<title>3&#45;&gt;0</title>
<path fill="none" stroke="#c0c0c0" stroke-width="2" d="M6983.1744,-198.5273C6980.4439,-198.3501 6977.719,-198.1743 6975,-198 5421.5238,-98.4162 3510.5125,-42.0412 3184.3917,-32.8418"/>
<polygon fill="#c0c0c0" stroke="#c0c0c0" stroke-width="2" points="3184.4254,-29.3415 3174.331,-32.5588 3184.2286,-36.3387 3184.4254,-29.3415"/>
</g>
<!-- 3&#45;&gt;4 -->
<g id="edge13" class="edge">
<title>3&#45;&gt;4</title>
<path fill="none" stroke="#c0c0c0" stroke-width="2" d="M6983.18,-198.4311C6980.4477,-198.2854 6977.7209,-198.1417 6975,-198 6632.0538,-180.145 4159.7468,-140.9691 3598.933,-132.2449"/>
<polygon fill="#c0c0c0" stroke="#c0c0c0" stroke-width="2" points="3598.8716,-128.7436 3588.8184,-132.0876 3598.7627,-135.7428 3598.8716,-128.7436"/>
</g>
<!-- 4&#45;&gt;0 -->
<g id="edge4" class="edge">
<title>4&#45;&gt;0</title>
<path fill="none" stroke="#c0c0c0" stroke-width="2" d="M3383.3533,-101.4657C3317.5458,-82.8515 3235.1708,-59.5512 3184.0621,-45.0947"/>
<polygon fill="#c0c0c0" stroke="#c0c0c0" stroke-width="2" points="3184.8465,-41.6793 3174.2714,-42.3253 3182.9412,-48.4151 3184.8465,-41.6793"/>
</g>
<!-- 5 -->
<g id="node6" class="node">
<title>5</title>
<path fill="none" stroke="#d85656" stroke-width="2" d="M2257,-415C2257,-415 1919,-415 1919,-415 1913,-415 1907,-409 1907,-403 1907,-403 1907,-364 1907,-364 1907,-358 1913,-352 1919,-352 1919,-352 2257,-352 2257,-352 2263,-352 2269,-358 2269,-364 2269,-364 2269,-403 2269,-403 2269,-409 2263,-415 2257,-415"/>
<text text-anchor="middle" x="2088" y="-371" font-family="sans" font-size="50.00" fill="#000000">salmon_index</text>
</g>
<!-- 5&#45;&gt;1 -->
<g id="edge5" class="edge">
<title>5&#45;&gt;1</title>
<path fill="none" stroke="#c0c0c0" stroke-width="2" d="M1906.6691,-367.092C1764.1071,-354.1921 1556.186,-335.3781 1352.4212,-316.9401"/>
<polygon fill="#c0c0c0" stroke="#c0c0c0" stroke-width="2" points="1352.6884,-313.4501 1342.4136,-316.0346 1352.0575,-320.4216 1352.6884,-313.4501"/>
</g>
<!-- 5&#45;&gt;2 -->
<g id="edge6" class="edge">
<title>5&#45;&gt;2</title>
<path fill="none" stroke="#c0c0c0" stroke-width="2" d="M2088,-351.905C2088,-344.0358 2088,-335.2859 2088,-326.3722"/>
<polygon fill="#c0c0c0" stroke="#c0c0c0" stroke-width="2" points="2091.5001,-326.277 2088,-316.277 2084.5001,-326.277 2091.5001,-326.277"/>
</g>
<!-- 5&#45;&gt;3 -->
<g id="edge7" class="edge">
<title>5&#45;&gt;3</title>
<path fill="none" stroke="#c0c0c0" stroke-width="2" d="M2269.0434,-382.7208C3034.6982,-379.1605 6011.1242,-362.5836 6973.006,-316.0877"/>
<polygon fill="#c0c0c0" stroke="#c0c0c0" stroke-width="2" points="6973.3637,-319.5745 6983.1812,-315.5911 6973.0224,-312.5829 6973.3637,-319.5745"/>
</g>
<!-- 6 -->
<g id="node7" class="node">
<title>6</title>
<path fill="none" stroke="#56d8a9" stroke-width="2" d="M4164,-316C4164,-316 2808,-316 2808,-316 2802,-316 2796,-310 2796,-304 2796,-304 2796,-210 2796,-210 2796,-204 2802,-198 2808,-198 2808,-198 4164,-198 4164,-198 4170,-198 4176,-204 4176,-210 4176,-210 4176,-304 4176,-304 4176,-310 4170,-316 4164,-316"/>
<text text-anchor="middle" x="3486" y="-272" font-family="sans" font-size="50.00" fill="#000000">fastqc</text>
<text text-anchor="middle" x="3486" y="-217" font-family="sans" font-size="50.00" fill="#000000">flowcell_lane_info: HFYYTDSXX_18804116_S102_L002</text>
</g>
<!-- 6&#45;&gt;4 -->
<g id="edge8" class="edge">
<title>6&#45;&gt;4</title>
<path fill="none" stroke="#c0c0c0" stroke-width="2" d="M3486,-197.8242C3486,-189.1433 3486,-180.3597 3486,-172.131"/>
<polygon fill="#c0c0c0" stroke="#c0c0c0" stroke-width="2" points="3489.5001,-172.0542 3486,-162.0543 3482.5001,-172.0543 3489.5001,-172.0542"/>
</g>
<!-- 7 -->
<g id="node8" class="node">
<title>7</title>
<path fill="none" stroke="#56d8a9" stroke-width="2" d="M5562,-316C5562,-316 4206,-316 4206,-316 4200,-316 4194,-310 4194,-304 4194,-304 4194,-210 4194,-210 4194,-204 4200,-198 4206,-198 4206,-198 5562,-198 5562,-198 5568,-198 5574,-204 5574,-210 5574,-210 5574,-304 5574,-304 5574,-310 5568,-316 5562,-316"/>
<text text-anchor="middle" x="4884" y="-272" font-family="sans" font-size="50.00" fill="#000000">fastqc</text>
<text text-anchor="middle" x="4884" y="-217" font-family="sans" font-size="50.00" fill="#000000">flowcell_lane_info: HFYYTDSXX_18804124_S121_L002</text>
</g>
<!-- 7&#45;&gt;4 -->
<g id="edge9" class="edge">
<title>7&#45;&gt;4</title>
<path fill="none" stroke="#c0c0c0" stroke-width="2" d="M4231.8134,-197.986C3989.1499,-176.0282 3738.9287,-153.3866 3598.8352,-140.71"/>
<polygon fill="#c0c0c0" stroke="#c0c0c0" stroke-width="2" points="3598.8011,-137.1928 3588.5264,-139.7772 3598.1703,-144.1643 3598.8011,-137.1928"/>
</g>
<!-- 8 -->
<g id="node9" class="node">
<title>8</title>
<path fill="none" stroke="#56d8a9" stroke-width="2" d="M6953.5,-316C6953.5,-316 5604.5,-316 5604.5,-316 5598.5,-316 5592.5,-310 5592.5,-304 5592.5,-304 5592.5,-210 5592.5,-210 5592.5,-204 5598.5,-198 5604.5,-198 5604.5,-198 6953.5,-198 6953.5,-198 6959.5,-198 6965.5,-204 6965.5,-210 6965.5,-210 6965.5,-304 6965.5,-304 6965.5,-310 6959.5,-316 6953.5,-316"/>
<text text-anchor="middle" x="6279" y="-272" font-family="sans" font-size="50.00" fill="#000000">fastqc</text>
<text text-anchor="middle" x="6279" y="-217" font-family="sans" font-size="50.00" fill="#000000">flowcell_lane_info: HM7FMBBXX_16496360_S56_L005</text>
</g>
<!-- 8&#45;&gt;4 -->
<g id="edge10" class="edge">
<title>8&#45;&gt;4</title>
<path fill="none" stroke="#c0c0c0" stroke-width="2" d="M5592.1009,-198.5371C5589.0603,-198.3559 5586.0265,-198.1769 5583,-198 4825.78,-153.7487 3912.9273,-136.8254 3598.6671,-132.051"/>
<polygon fill="#c0c0c0" stroke="#c0c0c0" stroke-width="2" points="3598.694,-128.5511 3588.6423,-131.8997 3598.5884,-135.5503 3598.694,-128.5511"/>
</g>
<!-- 9 -->
<g id="node10" class="node">
<title>9</title>
<path fill="none" stroke="#d8ac56" stroke-width="2" d="M2352.5,-514C2352.5,-514 1823.5,-514 1823.5,-514 1817.5,-514 1811.5,-508 1811.5,-502 1811.5,-502 1811.5,-463 1811.5,-463 1811.5,-457 1817.5,-451 1823.5,-451 1823.5,-451 2352.5,-451 2352.5,-451 2358.5,-451 2364.5,-457 2364.5,-463 2364.5,-463 2364.5,-502 2364.5,-502 2364.5,-508 2358.5,-514 2352.5,-514"/>
<text text-anchor="middle" x="2088" y="-470" font-family="sans" font-size="50.00" fill="#000000">download_references</text>
</g>
<!-- 9&#45;&gt;5 -->
<g id="edge14" class="edge">
<title>9&#45;&gt;5</title>
<path fill="none" stroke="#c0c0c0" stroke-width="2" d="M2088,-450.9036C2088,-442.777 2088,-433.9064 2088,-425.3485"/>
<polygon fill="#c0c0c0" stroke="#c0c0c0" stroke-width="2" points="2091.5001,-425.1358 2088,-415.1358 2084.5001,-425.1358 2091.5001,-425.1358"/>
</g>
</g>
</svg>
