<?xml version="1.0" encoding="UTF-8" standalone="no"?>
<!DOCTYPE svg PUBLIC "-//W3C//DTD SVG 1.1//EN"
 "http://www.w3.org/Graphics/SVG/1.1/DTD/svg11.dtd">
<!-- Generated by graphviz version 2.42.3 (20191010.1750)
 -->
<!-- Title: snakemake_dag Pages: 1 -->
<svg width="13868pt" height="324pt"
 viewBox="0.00 0.00 13867.50 324.00" xmlns="http://www.w3.org/2000/svg" xmlns:xlink="http://www.w3.org/1999/xlink">
<g id="graph0" class="graph" transform="scale(1 1) rotate(0) translate(4 320)">
<title>snakemake_dag</title>
<polygon fill="white" stroke="transparent" points="-4,4 -4,-320 13863.5,-320 13863.5,4 -4,4"/>
<!-- 0 -->
<g id="node1" class="node">
<title>0</title>
<path fill="none" stroke="#59d856" stroke-width="2" d="M6956.5,-63C6956.5,-63 6904.5,-63 6904.5,-63 6898.5,-63 6892.5,-57 6892.5,-51 6892.5,-51 6892.5,-12 6892.5,-12 6892.5,-6 6898.5,0 6904.5,0 6904.5,0 6956.5,0 6956.5,0 6962.5,0 6968.5,-6 6968.5,-12 6968.5,-12 6968.5,-51 6968.5,-51 6968.5,-57 6962.5,-63 6956.5,-63"/>
<text text-anchor="middle" x="6930.5" y="-19" font-family="sans" font-size="50.00">all</text>
</g>
<!-- 1 -->
<g id="node2" class="node">
<title>1</title>
<path fill="none" stroke="#d8ac56" stroke-width="2" d="M7021,-162C7021,-162 6840,-162 6840,-162 6834,-162 6828,-156 6828,-150 6828,-150 6828,-111 6828,-111 6828,-105 6834,-99 6840,-99 6840,-99 7021,-99 7021,-99 7027,-99 7033,-105 7033,-111 7033,-111 7033,-150 7033,-150 7033,-156 7027,-162 7021,-162"/>
<text text-anchor="middle" x="6930.5" y="-118" font-family="sans" font-size="50.00">multiqc</text>
</g>
<!-- 1&#45;&gt;0 -->
<g id="edge1" class="edge">
<title>1&#45;&gt;0</title>
<path fill="none" stroke="grey" stroke-width="2" d="M6930.5,-98.81C6930.5,-90.76 6930.5,-81.95 6930.5,-73.46"/>
<polygon fill="grey" stroke="grey" stroke-width="2" points="6934,-73.32 6930.5,-63.32 6927,-73.32 6934,-73.32"/>
</g>
<!-- 2 -->
<g id="node3" class="node">
<title>2</title>
<path fill="none" stroke="#56a9d8" stroke-width="2" d="M1361,-316C1361,-316 12,-316 12,-316 6,-316 0,-310 0,-304 0,-304 0,-210 0,-210 0,-204 6,-198 12,-198 12,-198 1361,-198 1361,-198 1367,-198 1373,-204 1373,-210 1373,-210 1373,-304 1373,-304 1373,-310 1367,-316 1361,-316"/>
<text text-anchor="middle" x="686.5" y="-272" font-family="sans" font-size="50.00">fastqc</text>
<text text-anchor="middle" x="686.5" y="-217" font-family="sans" font-size="50.00">flowcell_lane_info: HM7FMBBXX_16496360_S56_L005</text>
</g>
<!-- 2&#45;&gt;1 -->
<g id="edge2" class="edge">
<title>2&#45;&gt;1</title>
<path fill="none" stroke="grey" stroke-width="2" d="M1373.4,-198.44C1376.44,-198.29 1379.47,-198.14 1382.5,-198 2495.88,-145 6130.36,-133.48 6817.76,-131.76"/>
<polygon fill="grey" stroke="grey" stroke-width="2" points="6817.92,-135.26 6827.91,-131.73 6817.9,-128.26 6817.92,-135.26"/>
</g>
<!-- 3 -->
<g id="node4" class="node">
<title>3</title>
<path fill="none" stroke="#56a9d8" stroke-width="2" d="M2747.5,-316C2747.5,-316 1403.5,-316 1403.5,-316 1397.5,-316 1391.5,-310 1391.5,-304 1391.5,-304 1391.5,-210 1391.5,-210 1391.5,-204 1397.5,-198 1403.5,-198 1403.5,-198 2747.5,-198 2747.5,-198 2753.5,-198 2759.5,-204 2759.5,-210 2759.5,-210 2759.5,-304 2759.5,-304 2759.5,-310 2753.5,-316 2747.5,-316"/>
<text text-anchor="middle" x="2075.5" y="-272" font-family="sans" font-size="50.00">fastqc</text>
<text text-anchor="middle" x="2075.5" y="-217" font-family="sans" font-size="50.00">flowcell_lane_info: HMLLWBBXX_16496360_S69_L006</text>
</g>
<!-- 3&#45;&gt;1 -->
<g id="edge3" class="edge">
<title>3&#45;&gt;1</title>
<path fill="none" stroke="grey" stroke-width="2" d="M2759.89,-198.43C2762.77,-198.29 2765.64,-198.14 2768.5,-198 3589.41,-157.14 6237.53,-136.39 6817.55,-132.27"/>
<polygon fill="grey" stroke="grey" stroke-width="2" points="6817.61,-135.77 6827.58,-132.2 6817.56,-128.77 6817.61,-135.77"/>
</g>
<!-- 4 -->
<g id="node5" class="node">
<title>4</title>
<path fill="none" stroke="#56a9d8" stroke-width="2" d="M4133.5,-316C4133.5,-316 2789.5,-316 2789.5,-316 2783.5,-316 2777.5,-310 2777.5,-304 2777.5,-304 2777.5,-210 2777.5,-210 2777.5,-204 2783.5,-198 2789.5,-198 2789.5,-198 4133.5,-198 4133.5,-198 4139.5,-198 4145.5,-204 4145.5,-210 4145.5,-210 4145.5,-304 4145.5,-304 4145.5,-310 4139.5,-316 4133.5,-316"/>
<text text-anchor="middle" x="3461.5" y="-272" font-family="sans" font-size="50.00">fastqc</text>
<text text-anchor="middle" x="3461.5" y="-217" font-family="sans" font-size="50.00">flowcell_lane_info: HMLLWBBXX_16496360_S69_L007</text>
</g>
<!-- 4&#45;&gt;1 -->
<g id="edge4" class="edge">
<title>4&#45;&gt;1</title>
<path fill="none" stroke="grey" stroke-width="2" d="M4145.89,-198.47C4148.77,-198.31 4151.64,-198.15 4154.5,-198 5187.89,-142.43 6440.16,-133.3 6817.59,-131.79"/>
<polygon fill="grey" stroke="grey" stroke-width="2" points="6817.71,-135.29 6827.69,-131.76 6817.68,-128.29 6817.71,-135.29"/>
</g>
<!-- 5 -->
<g id="node6" class="node">
<title>5</title>
<path fill="none" stroke="#56a9d8" stroke-width="2" d="M5519.5,-316C5519.5,-316 4175.5,-316 4175.5,-316 4169.5,-316 4163.5,-310 4163.5,-304 4163.5,-304 4163.5,-210 4163.5,-210 4163.5,-204 4169.5,-198 4175.5,-198 4175.5,-198 5519.5,-198 5519.5,-198 5525.5,-198 5531.5,-204 5531.5,-210 5531.5,-210 5531.5,-304 5531.5,-304 5531.5,-310 5525.5,-316 5519.5,-316"/>
<text text-anchor="middle" x="4847.5" y="-272" font-family="sans" font-size="50.00">fastqc</text>
<text text-anchor="middle" x="4847.5" y="-217" font-family="sans" font-size="50.00">flowcell_lane_info: HMLLWBBXX_16496360_S69_L008</text>
</g>
<!-- 5&#45;&gt;1 -->
<g id="edge5" class="edge">
<title>5&#45;&gt;1</title>
<path fill="none" stroke="grey" stroke-width="2" d="M5531.9,-198.57C5534.77,-198.38 5537.64,-198.19 5540.5,-198 6014.7,-166.82 6580.81,-144.3 6817.64,-135.53"/>
<polygon fill="grey" stroke="grey" stroke-width="2" points="6818.12,-139.02 6827.98,-135.15 6817.86,-132.02 6818.12,-139.02"/>
</g>
<!-- 6 -->
<g id="node7" class="node">
<title>6</title>
<path fill="none" stroke="#56a9d8" stroke-width="2" d="M6911,-316C6911,-316 5562,-316 5562,-316 5556,-316 5550,-310 5550,-304 5550,-304 5550,-210 5550,-210 5550,-204 5556,-198 5562,-198 5562,-198 6911,-198 6911,-198 6917,-198 6923,-204 6923,-210 6923,-210 6923,-304 6923,-304 6923,-310 6917,-316 6911,-316"/>
<text text-anchor="middle" x="6236.5" y="-272" font-family="sans" font-size="50.00">fastqc</text>
<text text-anchor="middle" x="6236.5" y="-217" font-family="sans" font-size="50.00">flowcell_lane_info: HM7FMBBXX_16496341_S37_L005</text>
</g>
<!-- 6&#45;&gt;1 -->
<g id="edge6" class="edge">
<title>6&#45;&gt;1</title>
<path fill="none" stroke="grey" stroke-width="2" d="M6559.88,-197.99C6652.37,-181.39 6747.12,-164.4 6817.66,-151.74"/>
<polygon fill="grey" stroke="grey" stroke-width="2" points="6818.66,-155.12 6827.89,-149.91 6817.42,-148.23 6818.66,-155.12"/>
</g>
<!-- 7 -->
<g id="node8" class="node">
<title>7</title>
<path fill="none" stroke="#56a9d8" stroke-width="2" d="M8297.5,-316C8297.5,-316 6953.5,-316 6953.5,-316 6947.5,-316 6941.5,-310 6941.5,-304 6941.5,-304 6941.5,-210 6941.5,-210 6941.5,-204 6947.5,-198 6953.5,-198 6953.5,-198 8297.5,-198 8297.5,-198 8303.5,-198 8309.5,-204 8309.5,-210 8309.5,-210 8309.5,-304 8309.5,-304 8309.5,-310 8303.5,-316 8297.5,-316"/>
<text text-anchor="middle" x="7625.5" y="-272" font-family="sans" font-size="50.00">fastqc</text>
<text text-anchor="middle" x="7625.5" y="-217" font-family="sans" font-size="50.00">flowcell_lane_info: HMLLWBBXX_16496341_S50_L006</text>
</g>
<!-- 7&#45;&gt;1 -->
<g id="edge7" class="edge">
<title>7&#45;&gt;1</title>
<path fill="none" stroke="grey" stroke-width="2" d="M7301.65,-197.99C7209.03,-181.39 7114.15,-164.4 7043.51,-151.74"/>
<polygon fill="grey" stroke="grey" stroke-width="2" points="7043.72,-148.23 7033.26,-149.91 7042.49,-155.12 7043.72,-148.23"/>
</g>
<!-- 8 -->
<g id="node9" class="node">
<title>8</title>
<path fill="none" stroke="#56a9d8" stroke-width="2" d="M9683.5,-316C9683.5,-316 8339.5,-316 8339.5,-316 8333.5,-316 8327.5,-310 8327.5,-304 8327.5,-304 8327.5,-210 8327.5,-210 8327.5,-204 8333.5,-198 8339.5,-198 8339.5,-198 9683.5,-198 9683.5,-198 9689.5,-198 9695.5,-204 9695.5,-210 9695.5,-210 9695.5,-304 9695.5,-304 9695.5,-310 9689.5,-316 9683.5,-316"/>
<text text-anchor="middle" x="9011.5" y="-272" font-family="sans" font-size="50.00">fastqc</text>
<text text-anchor="middle" x="9011.5" y="-217" font-family="sans" font-size="50.00">flowcell_lane_info: HMLLWBBXX_16496341_S50_L007</text>
</g>
<!-- 8&#45;&gt;1 -->
<g id="edge8" class="edge">
<title>8&#45;&gt;1</title>
<path fill="none" stroke="grey" stroke-width="2" d="M8327.1,-198.57C8324.23,-198.38 8321.36,-198.19 8318.5,-198 7845.28,-166.87 7280.39,-144.34 7043.65,-135.55"/>
<polygon fill="grey" stroke="grey" stroke-width="2" points="7043.43,-132.04 7033.31,-135.17 7043.17,-139.04 7043.43,-132.04"/>
</g>
<!-- 9 -->
<g id="node10" class="node">
<title>9</title>
<path fill="none" stroke="#56a9d8" stroke-width="2" d="M11069.5,-316C11069.5,-316 9725.5,-316 9725.5,-316 9719.5,-316 9713.5,-310 9713.5,-304 9713.5,-304 9713.5,-210 9713.5,-210 9713.5,-204 9719.5,-198 9725.5,-198 9725.5,-198 11069.5,-198 11069.5,-198 11075.5,-198 11081.5,-204 11081.5,-210 11081.5,-210 11081.5,-304 11081.5,-304 11081.5,-310 11075.5,-316 11069.5,-316"/>
<text text-anchor="middle" x="10397.5" y="-272" font-family="sans" font-size="50.00">fastqc</text>
<text text-anchor="middle" x="10397.5" y="-217" font-family="sans" font-size="50.00">flowcell_lane_info: HMLLWBBXX_16496341_S50_L008</text>
</g>
<!-- 9&#45;&gt;1 -->
<g id="edge9" class="edge">
<title>9&#45;&gt;1</title>
<path fill="none" stroke="grey" stroke-width="2" d="M9713.11,-198.47C9710.23,-198.31 9707.36,-198.15 9704.5,-198 8671.86,-142.46 7420.48,-133.31 7043.33,-131.8"/>
<polygon fill="grey" stroke="grey" stroke-width="2" points="7043.24,-128.3 7033.23,-131.76 7043.22,-135.3 7043.24,-128.3"/>
</g>
<!-- 10 -->
<g id="node11" class="node">
<title>10</title>
<path fill="none" stroke="#56a9d8" stroke-width="2" d="M12461,-316C12461,-316 11112,-316 11112,-316 11106,-316 11100,-310 11100,-304 11100,-304 11100,-210 11100,-210 11100,-204 11106,-198 11112,-198 11112,-198 12461,-198 12461,-198 12467,-198 12473,-204 12473,-210 12473,-210 12473,-304 12473,-304 12473,-310 12467,-316 12461,-316"/>
<text text-anchor="middle" x="11786.5" y="-272" font-family="sans" font-size="50.00">fastqc</text>
<text text-anchor="middle" x="11786.5" y="-217" font-family="sans" font-size="50.00">flowcell_lane_info: HM7FMBBXX_16496348_S44_L005</text>
</g>
<!-- 10&#45;&gt;1 -->
<g id="edge10" class="edge">
<title>10&#45;&gt;1</title>
<path fill="none" stroke="grey" stroke-width="2" d="M11099.6,-198.46C11096.56,-198.3 11093.53,-198.15 11090.5,-198 10269.98,-157.3 7623.13,-136.42 7043.4,-132.28"/>
<polygon fill="grey" stroke="grey" stroke-width="2" points="7043.39,-128.78 7033.37,-132.21 7043.34,-135.78 7043.39,-128.78"/>
</g>
<!-- 11 -->
<g id="node12" class="node">
<title>11</title>
<path fill="none" stroke="#56a9d8" stroke-width="2" d="M13847.5,-316C13847.5,-316 12503.5,-316 12503.5,-316 12497.5,-316 12491.5,-310 12491.5,-304 12491.5,-304 12491.5,-210 12491.5,-210 12491.5,-204 12497.5,-198 12503.5,-198 12503.5,-198 13847.5,-198 13847.5,-198 13853.5,-198 13859.5,-204 13859.5,-210 13859.5,-210 13859.5,-304 13859.5,-304 13859.5,-310 13853.5,-316 13847.5,-316"/>
<text text-anchor="middle" x="13175.5" y="-272" font-family="sans" font-size="50.00">fastqc</text>
<text text-anchor="middle" x="13175.5" y="-217" font-family="sans" font-size="50.00">flowcell_lane_info: HMLLWBBXX_16496348_S57_L006</text>
</g>
<!-- 11&#45;&gt;1 -->
<g id="edge11" class="edge">
<title>11&#45;&gt;1</title>
<path fill="none" stroke="grey" stroke-width="2" d="M12491.11,-198.42C12488.23,-198.28 12485.36,-198.14 12482.5,-198 11368.33,-144.77 7731.22,-133.43 7043.32,-131.75"/>
<polygon fill="grey" stroke="grey" stroke-width="2" points="7043.18,-128.25 7033.17,-131.72 7043.16,-135.25 7043.18,-128.25"/>
</g>
</g>
</svg>
